<svg width="17" height="16" viewBox="0 0 17 16" fill="none" xmlns="http://www.w3.org/2000/svg">
    <path d="M7.23323 0.482178C3.74293 0.482178 0.899902 3.32521 0.899902 6.81551C0.899902 10.3058 3.74293 13.1488 7.23323 13.1488C8.75102 13.1488 10.1449 12.6099 11.2373 11.7152L15.0188 15.4966C15.0771 15.5574 15.147 15.6059 15.2244 15.6394C15.3017 15.6728 15.385 15.6905 15.4692 15.6913C15.5535 15.6922 15.6371 15.6762 15.7151 15.6444C15.7931 15.6125 15.864 15.5654 15.9236 15.5058C15.9831 15.4463 16.0302 15.3754 16.0621 15.2974C16.0939 15.2194 16.1099 15.1358 16.109 15.0515C16.1082 14.9673 16.0905 14.884 16.0571 14.8067C16.0237 14.7293 15.9751 14.6594 15.9144 14.6011L12.1329 10.8196C13.0276 9.72719 13.5666 8.3333 13.5666 6.81551C13.5666 3.32521 10.7235 0.482178 7.23323 0.482178ZM7.23323 1.74884C10.039 1.74884 12.2999 4.00977 12.2999 6.81551C12.2999 9.62125 10.039 11.8822 7.23323 11.8822C4.42749 11.8822 2.16657 9.62125 2.16657 6.81551C2.16657 4.00977 4.42749 1.74884 7.23323 1.74884Z" fill="#666C7A"/>
</svg>
